<svg xmlns="http://www.w3.org/2000/svg" width="66.427" height="95.07" viewBox="0 0 66.427 95.07">
  <g id="mic" transform="translate(-41.781 -27.479)">
    <g id="g17480" transform="translate(646.303 236.379)">
      <path id="path17482" d="M-571.3-147.3a14.19,14.19,0,0,0,14.2-14.2v-33.2a14.19,14.19,0,0,0-14.2-14.2,14.19,14.19,0,0,0-14.2,14.2v33.2a14.255,14.255,0,0,0,14.2,14.2" fill="#1e88e5"/>
    </g>
    <g id="g17484" transform="translate(645.48 233.149)">
      <path id="path17486" d="M-575.2-125.5h0v14.9h9.5v-14.8a36.179,36.179,0,0,1-4.7.2,19.089,19.089,0,0,1-4.8-.3" fill="#4caf50"/>
    </g>
    <g id="g17488" transform="translate(643.381 235.911)">
      <path id="path17490" d="M-585.2-144.1a22.645,22.645,0,0,1-6.9-16.6h-9.5a32.111,32.111,0,0,0,9.7,23.3l.1-.1-.1-.1Z" fill="#fbc02d"/>
    </g>
    <g id="g17492" transform="translate(650.408 238.79)">
      <path id="path17494" d="M-551.7-163.6c0,11.9-10.5,23.6-23.7,23.6a23.65,23.65,0,0,1-16.8-7l-.1.1-6.6,6.6.1.1a33.348,33.348,0,0,0,18.7,9.3,38.838,38.838,0,0,0,4.8.4,36.179,36.179,0,0,0,4.7-.2,33.076,33.076,0,0,0,28.4-32.7h-9.5Z" fill="#e53935"/>
    </g>
  </g>
</svg>
